# AST/ASF file generated using VICON BodyLanguage
# -----------------------------------------------
:version 1.10
:name VICON
:units
  mass 1.0
  length 0.45
  angle deg
:documentation
   .ast/.asf automatically generated from VICON data using
   VICON BodyBuilder and BodyLanguage model FoxedUp or BRILLIANT.MOD
:root
   order TX TY TZ RX RY RZ
   axis XYZ
   position 0 0 0  
   orientation 0 0 0 
:bonedata
  begin
     id 1 
     name lhipjoint
     direction 0.61886 -0.69539 0.365302 
     length 2.20474 
     axis 0 0 0  XYZ
  end
  begin
     id 2 
     name lfemur
     direction 0.34202 -0.939693 0  
     length 6.65149  
     axis 0 0 20  XYZ
    dof rx ry rz
    limits (-160.0 20.0)
           (-70.0 70.0)
           (-60.0 70.0)
  end
  begin
     id 3 
     name ltibia
     direction 0.34202 -0.939693 0   
     length 6.35814   
     axis 0 0 20   XYZ
    dof rx
    limits (-10.0 170.0)
  end
  begin
     id 4 
     name lfoot
     direction 0.101224 -0.278109 0.955201   
     length 2.18766   
     axis -90 7.62852e-016 20   XYZ
    dof rx rz
    limits (-45.0 90.0)
           (-70.0 20.0)
  end
  begin
     id 5 
     name ltoes
     direction 1.53524e-011 -4.21877e-011 1   
     length 1.09206   
     axis -90 7.62852e-016 20   XYZ
    dof rx
    limits (-90.0 20.0)
  end
  begin
     id 6 
     name rhipjoint
     direction -0.600207 -0.708087 0.371972   
     length 2.1652  
     axis 0 0 0  XYZ 
  end
  begin
     id 7 
     name rfemur
     direction -0.34202 -0.939693 0   
     length 6.54691   
     axis 0 0 -20   XYZ
    dof rx ry rz
    limits (-160.0 20.0)
           (-70.0 70.0)
           (-70.0 60.0)
  end
  begin
     id 8 
     name rtibia
     direction -0.34202 -0.939693 0   
     length 6.37474   
     axis 0 0 -20   XYZ
    dof rx
    limits (-10.0 170.0)
 end
 begin
     id 9 
     name rfoot
     direction -0.111266 -0.3057 0.945604   
     length 2.00903  
     axis -90 -7.62852e-016 -20   XYZ
    dof rx rz
    limits (-45.0 90.0)
           (-20.0 70.0)
  end
  begin
     id 10 
     name rtoes
     direction -1.5362e-011 -4.21913e-011 1   
     length 1.00221   
     axis -90 -7.62852e-016 -20   XYZ
    dof rx
    limits (-90.0 20.0)
  end
  begin
     id 11 
     name lowerback
     direction -0.0224561 0.999731 -0.00577314   
     length 2.10409   
     axis 0 0 0   XYZ
    dof rx ry rz
    limits (-20.0 45.0)
           (-30.0 30.0)
           (-30.0 30.0)
  end
  begin
     id 12 
     name upperback
     direction 0.0213126 0.999185 -0.0342817   
     length 2.09783   
     axis 0 0 0   XYZ
    dof rx ry rz
    limits (-20.0 45.0)
           (-30.0 30.0)
           (-30.0 30.0)
  end
  begin
     id 13 
     name thorax
     direction 0.0312356 0.999036 -0.0308451   
     length 2.09788   
     axis 0 0 0   XYZ
    dof rx ry rz
    limits (-20.0 45.0)
           (-30.0 30.0)
           (-30.0 30.0)
  end
  begin
     id 14 
     name lowerneck
     direction -0.0114419 0.996481 0.0830329   
     length 1.38575   
     axis 0 0 0   XYZ
    dof rx ry rz
    limits (-20.0 45.0)
           (-30.0 30.0)
           (-30.0 30.0)
  end
  begin
     id 15 
     name upperneck
     direction -0.0075675 0.996187 -0.0869092   
     length 1.39401   
     axis 0 0 0   XYZ
    dof rx ry rz
    limits (-20.0 45.0)
           (-30.0 30.0)
           (-30.0 30.0)
  end
  begin
     id 16
     name head
     direction -0.00222073 0.999264 -0.0382974  
     length 1.3964  
     axis 0 0 0   XYZ
    dof rx ry rz
    limits (-20.0 45.0)
           (-30.0 30.0)
           (-30.0 30.0)
  end
  begin
     id 17 
     name lclavicle
     direction 0.965962 0.222138 0.132556  
     length 2.81514  
     axis 0 0 0   XYZ
    dof ry rz
    limits (-20.0 10.0)
           (0.0 20.0)
  end
  begin
     id 18 
     name lhumerus
     direction 1 -4.48972e-011 7.03471e-018   
     length 4.47366   
     axis 180 -30 -90   XYZ
    dof rx ry rz
    limits (-60.0 90.0)
           (-90.0 90.0)
           (-90.0 90.0)
  end
  begin
     id 19
     name lradius
     direction 1 -4.48951e-011 -6.22192e-028   
     length 3.19948   
     axis 180 -30 -90   XYZ
    dof rx
    limits (-10.0 170.0)
  end
  begin
     id 20
     name lwrist
     direction 1 -4.48967e-011 -1.24264e-027   
     length 1.59974   
     axis 1.40095e-015 90 90   XYZ
    dof ry
    limits (-180.0 0.0)
 end
  begin
     id 21 
     name lhand
     direction 1 -4.4897e-011 -2.48528e-027   
     length 0.492667   
     axis 1.58582e-015 90 90   XYZ
    dof rx rz
    limits (-90.0 90.0)
           (-45.0 45.0)
  end
  begin
     id 22 
     name lfingers
     direction 1 -4.48996e-011 -4.97056e-027   
     length 0.397201   
     axis 3.17164e-015 90 90   XYZ
    dof rx
    limits (0.0 90.0)
  end
  begin
     id 23
     name lthumb
     direction 0.707107 -6.34981e-011 0.707107   
     length 0.570303   
     axis -90 45 2.85299e-015   XYZ
    dof rx rz
    limits (-45.0 45.0)
           (-45.0 45.0)
  end
  begin
     id 24 
     name rclavicle
     direction -0.961164 0.229034 0.153972   
     length 3.09348  
     axis 0 0 0   XYZ 
    dof ry rz
    limits (-10.0 20.0)
           (-20.0 0.0)
  end
  begin
     id 25 
     name rhumerus
     direction -1 -4.48971e-011 -9.06263e-028  
     length 4.3269   
     axis 180 30 90   XYZ
    dof rx ry rz
    limits (-90.0 60.0)
           (-90.0 90.0)
           (-90.0 90.0)
  end
  begin
     id 26 
     name rradius
     direction -1 -4.48953e-011 1.44659e-027   
     length 3.1896   
     axis 180 30 90   XYZ
    dof rx
    limits (-10.0 170.0)
  end
  begin
     id 27 
     name rwrist
     direction -1 -4.48988e-011 -1.24264e-027   
     length 1.5948   
     axis 1.40095e-015 -90 -90   XYZ
    dof ry
    limits (-180.0 0.0)
  end
  begin
     id 28
     name rhand
     direction -1 -4.49033e-011 -2.48528e-027   
     length 0.464496   
     axis 1.58582e-015 -90 -90   XYZ
    dof rx rz
    limits (-90.0 90.0)
           (-45.0 45.0)
  end
  begin
     id 29
     name rfingers
     direction -1 -4.48905e-011 -4.97056e-027   
     length 0.374489   
     axis 3.17164e-015 -90 -90   XYZ
    dof rx
    limits (0.0 90.0)
  end
  begin
     id 30
     name rthumb
     direction -0.707107 -6.34909e-011 0.707107   
     length 0.537693   
     axis -90 -45 -2.85299e-015   XYZ
    dof rx rz
    limits (-45.0 45.0)
           (-45.0 45.0)
  end
:hierarchy
  begin
    root lhipjoint rhipjoint lowerback
    lhipjoint lfemur
    lfemur ltibia
    ltibia lfoot
    lfoot ltoes
    rhipjoint rfemur
    rfemur rtibia
    rtibia rfoot
    rfoot rtoes
    lowerback upperback
    upperback thorax
    thorax lowerneck lclavicle rclavicle
    lowerneck upperneck
    upperneck head
    lclavicle lhumerus
    lhumerus lradius
    lradius lwrist
    lwrist lhand lthumb
    lhand lfingers
    rclavicle rhumerus
    rhumerus rradius
    rradius rwrist
    rwrist rhand rthumb
    rhand rfingers
  end

#!OML:ASF G:\acrobat\cartwheel_test 2\Patient 1\Session 2\acrobat4.ASF
:FULLY-SPECIFIED
:DEGREES
2223
root 3.23324 15.4523 -7.90014 0.782096 -64.9069 11.5708
lowerback -1.23225 0.293751 -2.71083
upperback 0.403258 0.371892 3.80204
thorax 1.06369 0.143867 5.46323
lowerneck -16.1026 0.0910179 -0.0991077
upperneck 27.2114 0.630565 -2.80189
head 11.5487 -0.204428 -0.950085
rclavicle 0 -1.11319e-014
rhumerus -33.5957 -28.321 -63.4563
rradius 23.3563
rwrist 11.2816
rhand -29.5352 -29.8478
rfingers 7.12502
rthumb -2.86863 -59.8082
lclavicle 0 -1.11319e-014
lhumerus -35.3281 1.93233 72.9839
lradius 50.6443
lwrist -8.81535
lhand -48.3702 -6.71152
lfingers 7.12502
lthumb -21.0241 22.1689
rfemur -21.6848 7.80937 17.4276
rtibia 33.052
rfoot -30.3265 -13.7616
rtoes 44.7037
lfemur -17.6557 3.33569 -30.4796
ltibia 26.7437
lfoot -27.386 17.7338
ltoes 20.7266
2224
root 3.24361 15.4548 -7.89657 0.88837 -64.7952 11.4391
lowerback -1.15379 0.293085 -2.71171
upperback 0.39978 0.369501 3.83576
thorax 1.01611 0.143485 5.49845
lowerneck -16.202 0.108514 -0.206007
upperneck 27.3515 0.698478 -2.83548
head 11.6243 -0.192306 -0.936722
rclavicle 3.57812e-015 2.70347e-014
rhumerus -33.524 -28.4214 -63.4285
rradius 23.2936
rwrist 11.0955
rhand -30.0083 -30.3199
rfingers 7.12502
rthumb -3.32543 -60.2737
lclavicle 3.57812e-015 2.70347e-014
lhumerus -35.3462 1.99911 73.0305
lradius 50.789
lwrist -8.69108
lhand -48.2974 -6.91931
lfingers 7.12502
lthumb -20.9541 21.9688
rfemur -21.6495 7.83924 17.4423
rtibia 33.0146
rfoot -30.5039 -13.7646
rtoes 45.102
lfemur -17.6833 3.29573 -30.4617
ltibia 26.7521
lfoot -27.2597 17.7824
ltoes 20.5644
2225
root 3.25001 15.4556 -7.89214 0.842952 -64.7179 11.5047
lowerback -1.16695 0.38576 -2.66058
upperback 0.404592 0.495575 3.71161
thorax 1.01528 0.208173 5.34131
lowerneck -16.2918 0.0523809 -0.0587019
upperneck 27.4067 0.596517 -2.89562
head 11.6623 -0.230894 -1.00014
rclavicle -2.54444e-014 3.97569e-014
rhumerus -33.7248 -28.9391 -63.2576
rradius 23.2801
rwrist 11.5447
rhand -29.8143 -30.0873
rfingers 7.12502
rthumb -3.13816 -60.0439
lclavicle -2.54444e-014 3.97569e-014
lhumerus -35.1382 1.79704 72.9887
lradius 50.8032
lwrist -8.5427
lhand -48.2276 -6.98954
lfingers 7.12502
lthumb -20.8871 21.906
rfemur -21.6556 7.93878 17.3509
rtibia 33.0053
rfoot -30.7441 -13.7711
rtoes 45.3983
lfemur -17.7036 3.22596 -30.5275
ltibia 26.7242
lfoot -27.2331 17.8318
ltoes 20.5871
2226
root 3.25622 15.4547 -7.88616 0.669939 -64.6947 11.6802
lowerback -1.18929 0.447316 -2.70191
upperback 0.428275 0.58055 3.62775
thorax 1.04308 0.25033 5.27897
lowerneck -16.1926 0.0277098 0.0518257
upperneck 27.2788 0.556745 -2.99189
head 11.5924 -0.246561 -1.05808
rclavicle -6.91771e-014 7.95139e-015
rhumerus -33.8213 -29.1609 -63.1477
rradius 23.2724
rwrist 11.8256
rhand -29.8619 -29.948
rfingers 7.12502
rthumb -3.18412 -59.9039
lclavicle -6.91771e-014 7.95139e-015
lhumerus -34.9664 1.78046 72.9742
lradius 50.7794
lwrist -8.40878
lhand -48.0424 -6.55871
lfingers 7.12502
lthumb -20.7092 22.3563
rfemur -21.6579 8.01831 17.2189
rtibia 33.0198
rfoot -30.8262 -13.8026
rtoes 45.5163
lfemur -17.6722 3.19599 -30.6489
ltibia 26.6588
lfoot -27.2256 17.8678
ltoes 20.5499
2227
root 3.2631 15.455 -7.87953 0.393225 -64.7461 11.9755
lowerback -1.24236 0.323212 -3.01966
upperback 0.439937 0.417611 3.78199
thorax 1.10009 0.163757 5.62037
lowerneck -15.8291 0.17242 -0.350213
upperneck 27.0042 0.877048 -3.01847
head 11.4199 -0.142394 -0.947699
rclavicle 4.45278e-014 9.54166e-015
rhumerus -33.431 -28.4291 -63.3164
rradius 23.2071
rwrist 11.2457
rhand -29.9033 -30.2333
rfingers 7.12502
rthumb -3.22412 -60.1887
lclavicle 4.45278e-014 9.54166e-015
lhumerus -35.1536 2.50116 73.0667
lradius 50.8045
lwrist -8.34913
lhand -47.7769 -6.33727
lfingers 7.12502
lthumb -20.454 22.6054
rfemur -21.6903 8.01785 17.0386
rtibia 33.036
rfoot -30.777 -13.7589
rtoes 45.5341
lfemur -17.6421 3.17069 -30.828
ltibia 26.5935
lfoot -27.2557 17.958
ltoes 20.4146
2228
root 3.27187 15.4578 -7.87474 0.323504 -64.707 12.1043
lowerback -1.31091 0.165017 -3.24765
upperback 0.420559 0.208448 3.92506
thorax 1.14275 0.0553436 5.89797
lowerneck -15.6325 0.31682 -0.749047
upperneck 26.8726 1.17875 -2.98441
head 11.3343 -0.0406605 -0.822025
rclavicle -7.51406e-014 -2.70347e-014
rhumerus -33.0125 -27.4305 -63.726
rradius 23.2009
rwrist 10.0308
rhand -29.7387 -30.5021
rfingers 7.12502
rthumb -3.06515 -60.4599
lclavicle -7.51406e-014 -2.70347e-014
lhumerus -35.42 3.07374 73.0817
lradius 50.896
lwrist -8.26358
lhand -47.7446 -6.39374
lfingers 7.12502
lthumb -20.423 22.5522
rfemur -21.7542 8.11677 16.9165
rtibia 33.0457
rfoot -30.8844 -13.8452
rtoes 45.4207
lfemur -17.6825 3.0778 -30.9257
ltibia 26.548
lfoot -27.2467 18.0131
ltoes 20.5098
2229
root 3.28084 15.4602 -7.87119 0.566112 -64.5719 11.8946
lowerback -1.33737 0.133554 -3.18817
upperback 0.401792 0.166362 3.90762
thorax 1.14373 0.0351658 5.84455
lowerneck -15.7188 0.326312 -0.638874
upperneck 26.8977 1.17895 -3.03318
head 11.362 -0.036044 -0.859129
rclavicle 3.97569e-015 2.8625e-014
rhumerus -32.9423 -27.163 -63.9744
rradius 23.2158
rwrist 9.26925
rhand -29.7051 -30.6199
rfingers 7.12502
rthumb -3.03267 -60.5781
lclavicle 3.97569e-015 2.8625e-014
lhumerus -35.5207 2.95952 72.9743
lradius 51.0714
lwrist -8.12013
lhand -47.8782 -6.44919
lfingers 7.12502
lthumb -20.5513 22.483
rfemur -21.7782 8.42777 16.9359
rtibia 33.0442
rfoot -31.2344 -14.0784
rtoes 45.4948
lfemur -17.7487 3.11148 -30.8781
ltibia 26.5281
lfoot -27.0983 17.9238
ltoes 20.4804
2230
root 3.28864 15.4591 -7.86774 0.719781 -64.5427 11.745
lowerback -1.30884 0.121752 -3.1987
upperback 0.346854 0.150996 3.91884
thorax 1.07294 0.0302669 5.86167
lowerneck -15.631 0.373709 -0.5308
upperneck 26.8643 1.23414 -3.10722
head 11.3335 -0.00848779 -0.896385
rclavicle 7.55382e-015 2.8625e-014
rhumerus -32.9943 -27.0596 -63.9606
rradius 23.189
rwrist 9.05114
rhand -29.8562 -30.6266
rfingers 7.12502
rthumb -3.17858 -60.5826
lclavicle 7.55382e-015 2.8625e-014
lhumerus -35.6355 2.97364 72.9054
lradius 51.1244
lwrist -8.07459
lhand -47.9167 -6.68619
lfingers 7.12502
lthumb -20.5884 22.242
rfemur -21.7925 8.652 16.9518
rtibia 33.0259
rfoot -31.4199 -14.1948
rtoes 45.6524
lfemur -17.7994 3.34304 -30.8618
ltibia 26.5493
lfoot -26.9532 17.7305
ltoes 20.2679
2231
root 3.29535 15.4572 -7.86353 0.721023 -64.602 11.7289
lowerback -1.26552 0.169992 -3.25092
upperback 0.295683 0.216675 3.91882
thorax 0.987439 0.0662611 5.8925
lowerneck -15.6489 0.365554 -0.562497
upperneck 26.9173 1.22598 -3.08529
head 11.3569 -0.0139269 -0.884801
rclavicle 2.10712e-014 -2.8625e-014
rhumerus -33.1297 -27.0162 -63.8546
rradius 23.2303
rwrist 8.91872
rhand -29.9147 -30.5711
rfingers 7.12502
rthumb -3.23507 -60.5263
lclavicle 2.10712e-014 -2.8625e-014
lhumerus -35.6097 2.98755 72.9368
lradius 50.9901
lwrist -8.10283
lhand -47.9415 -6.75237
lfingers 7.12502
lthumb -20.6122 22.1732
rfemur -21.8025 8.6229 16.9386
rtibia 33.003
rfoot -31.3471 -14.119
rtoes 45.722
lfemur -17.825 3.53414 -30.8937
ltibia 26.598
lfoot -26.8146 17.5745
ltoes 20.1922
2232
root 3.30181 15.457 -7.85908 0.827205 -64.5805 11.5769
lowerback -1.22333 0.238631 -3.18686
upperback 0.287709 0.307272 3.89504
thorax 0.944468 0.11353 5.83206
lowerneck -15.7566 0.265444 -0.542024
upperneck 26.9363 1.08828 -3.10709
head 11.3837 -0.0770399 -0.916299
rclavicle -6.32135e-014 1.74931e-014
rhumerus -33.2516 -27.1845 -63.7445
rradius 23.2738
rwrist 8.93586
rhand -29.9669 -30.6111
rfingers 7.12502
rthumb -3.28553 -60.5655
lclavicle -6.32135e-014 1.74931e-014
lhumerus -35.5576 2.73219 72.9989
lradius 50.9917
lwrist -7.95249
lhand -48.1026 -6.64226
lfingers 7.12502
lthumb -20.767 22.2665
rfemur -21.7722 8.58509 16.9916
rtibia 32.9802
rfoot -31.3092 -14.1589
rtoes 45.5703
lfemur -17.849 3.6228 -30.8547
ltibia 26.6517
lfoot -26.6331 17.5078
ltoes 20.1342
